<?xml version="1.0" encoding="UTF-8"?>
<svg id="Layer_1" xmlns="http://www.w3.org/2000/svg" xmlns:xlink="http://www.w3.org/1999/xlink" version="1.1" viewBox="0 0 80 80">
  <!-- Generator: Adobe Illustrator 30.1.0, SVG Export Plug-In . SVG Version: 2.1.1 Build 136)  -->
  <defs>
    <style>
      .st0 {
        fill: none;
      }

      .st1 {
        opacity: .5;
      }

      .st2 {
        opacity: .3;
      }

      .st3 {
        clip-path: url(#clippath);
      }

      .st4 {
        fill: #fff;
        isolation: isolate;
        opacity: .2;
      }
    </style>
    <clipPath id="clippath">
      <rect class="st0" width="80" height="80"/>
    </clipPath>
  </defs>
  <g class="st3">
    <g class="st2">
      <g class="st1">
        <path class="st4" d="M39.4,49c-17.5,13.2-20.2-11.8-36.2,11.4v.6h.5c13.2-8.5,14.4-1.5,21.8-1h0c6.9-.4,10-5.4,14.2-10.4h0c.2-.3,0-.7-.3-.7s-.2,0-.2,0h.2ZM14.5,55.4c-2.2,0-4.5.6-7,1.7,11.4-13.1,15.8,1.8,27.3-3.6-10.2,10.3-12.1,1.9-20.3,1.9Z"/>
        <path class="st4" d="M57.9,33.4c-17.5,13.2-20.2-11.8-36.2,11.4-.1.2,0,.5.1.6h.5c13.2-8.5,14.4-1.5,21.8-1h0c6.9-.4,10-5.4,14.2-10.4h0c.2-.3,0-.7-.3-.7s-.2,0-.2,0h.1ZM32.9,39.8c-2.2,0-4.5.6-7,1.7,11.4-13.1,15.8,1.8,27.3-3.6-10.2,10.3-12.1,1.9-20.3,1.9Z"/>
        <path class="st4" d="M17.9,33.4C.4,46.7-2.4,21.6-18.4,44.9c-.1.2,0,.5.1.6h.5c13.2-8.5,14.4-1.5,21.8-1h0c6.9-.4,10-5.4,14.2-10.4h0c.2-.3,0-.7-.3-.7s-.2,0-.2,0c0,0,.2,0,.2,0ZM-7.1,39.8c-2.2,0-4.5.6-7,1.7,11.4-13.1,15.8,1.8,27.3-3.6-10.2,10.3-12.1,1.9-20.3,1.9Z"/>
        <path class="st4" d="M97.9,33.4c-17.5,13.2-20.2-11.8-36.2,11.4v.6h.5c13.2-8.5,14.4-1.5,21.8-1h0c6.9-.4,10-5.4,14.2-10.4h0c.2-.3,0-.7-.3-.7s-.2,0-.2,0h.2ZM72.9,39.8c-2.2,0-4.5.6-7,1.7,11.4-13.1,15.8,1.8,27.3-3.6-10.2,10.3-12.1,1.9-20.3,1.9Z"/>
        <path class="st4" d="M57.9,64.6c-17.5,13.2-20.2-11.8-36.2,11.4-.1.2,0,.5.1.6h.5c13.2-8.5,14.4-1.5,21.8-1h0c6.9-.4,10-5.4,14.2-10.4h0c.2-.3,0-.7-.3-.7s-.2,0-.2,0h.1ZM32.9,71c-2.2,0-4.5.6-7,1.7,11.4-13.1,15.8,1.8,27.3-3.6-10.2,10.3-12.1,1.9-20.3,1.9Z"/>
        <path class="st4" d="M17.9,64.6C.4,77.9-2.4,52.8-18.4,76c-.1.2,0,.5.1.6h.5c13.2-8.5,14.4-1.5,21.8-1h0c6.9-.4,10-5.4,14.2-10.4h0c.2-.3,0-.7-.3-.7s-.2,0-.2,0h.2,0ZM-7.1,71c-2.2,0-4.5.6-7,1.7,11.4-13.1,15.8,1.8,27.3-3.6-10.2,10.3-12.1,1.9-20.3,1.9Z"/>
        <path class="st4" d="M97.9,64.6c-17.5,13.2-20.2-11.8-36.2,11.4v.6h.5c13.2-8.5,14.4-1.5,21.8-1h0c6.9-.4,10-5.4,14.2-10.4h0c.2-.3,0-.7-.3-.7s-.2,0-.2,0h.2ZM72.9,71c-2.2,0-4.5.6-7,1.7,11.4-13.1,15.8,1.8,27.3-3.6-10.2,10.3-12.1,1.9-20.3,1.9Z"/>
        <path class="st4" d="M57.9,2.1c-17.5,13.2-20.2-11.8-36.2,11.4-.1.2,0,.5.1.6h.5c13.2-8.5,14.4-1.5,21.8-1h0c6.9-.4,10-5.4,14.2-10.4h0c.2-.3,0-.7-.3-.7s-.2,0-.2,0h.1ZM32.9,8.5c-2.2,0-4.5.6-7,1.7,11.4-13.1,15.8,1.8,27.3-3.6-10.2,10.3-12.1,1.9-20.3,1.9Z"/>
        <path class="st4" d="M17.9,2.2C.4,15.4-2.4-9.7-18.4,13.6c-.1.2,0,.5.1.6h.5c13.2-8.5,14.4-1.5,21.8-1h0c6.9-.4,10-5.4,14.2-10.4h0c.2-.3,0-.7-.3-.7s-.2,0-.2,0h.2,0ZM-7.1,8.5c-2.2,0-4.5.6-7,1.7C-2.7-2.8,1.8,12,13.2,6.6c-10.2,10.3-12.1,1.9-20.3,1.9Z"/>
        <path class="st4" d="M97.9,2.1c-17.5,13.2-20.2-11.8-36.2,11.4v.6h.5c13.2-8.5,14.4-1.5,21.8-1h0c6.9-.4,10-5.4,14.2-10.4h0c.2-.3,0-.7-.3-.7s-.2,0-.2,0h.2ZM72.9,8.5c-2.2,0-4.5.6-7,1.7,11.4-13.1,15.8,1.8,27.3-3.6-10.2,10.3-12.1,1.9-20.3,1.9Z"/>
        <path class="st4" d="M76.3,49c-17.5,13.2-20.2-11.8-36.2,11.4v.6h.5c13.2-8.5,14.4-1.5,21.8-1h0c6.9-.4,10-5.4,14.2-10.4h0c.2-.3,0-.7-.3-.7s-.2,0-.2,0h.2ZM51.4,55.4c-2.2,0-4.5.6-7,1.7,11.4-13.1,15.8,1.8,27.3-3.6-10.2,10.3-12.1,1.9-20.3,1.9Z"/>
        <path class="st4" d="M39.4,17.8C21.9,31,19.2,6,3.2,29.2v.6h.5c13.2-8.5,14.4-1.5,21.8-1h0c6.9-.4,10-5.4,14.2-10.4h0c.2-.3,0-.7-.3-.7s-.2,0-.2,0h.2ZM14.5,24.2c-2.2,0-4.5.6-7,1.7,11.4-13.1,15.8,1.8,27.3-3.6-10.2,10.3-12.1,1.9-20.3,1.9Z"/>
        <path class="st4" d="M76.3,17.8c-17.5,13.2-20.2-11.8-36.2,11.4v.6h.5c13.2-8.5,14.4-1.5,21.8-1h0c6.9-.4,10-5.4,14.2-10.4h0c.2-.3,0-.7-.3-.7s-.2,0-.2,0h.2ZM51.4,24.2c-2.2,0-4.5.6-7,1.7,11.4-13.1,15.8,1.8,27.3-3.6-10.2,10.3-12.1,1.9-20.3,1.9Z"/>
      </g>
    </g>
  </g>
</svg>